<?xml version="1.0" encoding="UTF-8" standalone="no"?>
<svg xmlns="http://www.w3.org/2000/svg" width="149.942" height="45" viewBox="0 0 149.942 45">
  <g id="Group_717" data-name="Group 717" transform="translate(-1277.246 -972.152)">
    <g id="Group_524" data-name="Group 524" transform="translate(-352.672 637.582)">
      <g id="Group_522" data-name="Group 522">
        <path id="Path_291" data-name="Path 291" d="M1681.944,345.585h8.12c5.629,0,8.67,3.074,8.67,7.053,0,4.011-3.041,7.052-8.67,7.052h-4.5v8.541h-3.623Zm3.623,3.041v8.023h4.5c3.429,0,5.047-1.682,5.047-4.011,0-2.265-1.618-4.012-5.047-4.012Z" fill="#fff"></path>
        <path id="Path_292" data-name="Path 292" d="M1707.4,351.732a8.415,8.415,0,1,1-8.67,8.411A8.442,8.442,0,0,1,1707.4,351.732Zm0,13.781a5.38,5.38,0,1,0-5.047-5.37A5.138,5.138,0,0,0,1707.4,365.513Z" fill="#fff"></path>
        <path id="Path_293" data-name="Path 293" d="M1733.7,365.343a.84.84,0,0,1-.84-.839v-1.9a.642.642,0,0,0,.006-.107v-7.533h4.4v-2.914h-4.4v-5.176h-3.628v5.176h-2.488v0h-.453a5.825,5.825,0,0,0-4.691,1.9l-.194-.064v-1.844h-3.623v16.207h3.623V356.929a6.223,6.223,0,0,1,4.512-1.97l.826,0v0h2.488v7.665c0,.094,0,.188.006.275v2.357a3,3,0,0,0,3,2.995h6.3v-2.908Z" fill="#fff"></path>
        <path id="Path_294" data-name="Path 294" d="M1770.577,363.836v-16.6h-3.518v17.727a3.292,3.292,0,0,0,3.293,3.292h9.508v-3.3h-8.166A1.117,1.117,0,0,1,1770.577,363.836Z" fill="#fff"></path>
        <path id="Path_295" data-name="Path 295" d="M1761.254,347.232l-7.207,14.76h-.125l-7.206-14.76h-3.168v21.019h3.3v-13.23l.1-.034,6.337,13.264h1.4l6.351-13.263.1.034v13.229h3.284V347.232Z" fill="#fff"></path>
      </g>
      <g id="Group_523" data-name="Group 523">
        <path id="Path_296" data-name="Path 296" d="M1669.747,362.38a7.512,7.512,0,0,1-5.31,2.19,7.494,7.494,0,0,0-7.49,7.5,7.5,7.5,0,1,1-7.51-7.5,7.5,7.5,0,1,0,0-15,7.5,7.5,0,1,1,7.51-7.5,7.494,7.494,0,0,0,7.49,7.5,7.5,7.5,0,0,1,5.31,12.81Z" fill="#fff"></path>
        <path id="Path_297" data-name="Path 297" d="M1638.451,360.61a5,5,0,1,1,0-7.081A5.007,5.007,0,0,1,1638.451,360.61Z" fill="#fff"></path>
      </g>
    </g>
  </g>
</svg>